<?xml version="1.0" standalone="no"?><!DOCTYPE svg PUBLIC "-//W3C//DTD SVG 1.1//EN" "http://www.w3.org/Graphics/SVG/1.1/DTD/svg11.dtd"><svg t="1708176904217" class="icon" viewBox="0 0 1597 1024" version="1.1" xmlns="http://www.w3.org/2000/svg" p-id="4475" width="623.828125" height="400" xmlns:xlink="http://www.w3.org/1999/xlink"><path d="M1596.78 848.097c0 88.595-357.472 175.903-798.39 175.903S0 936.95 0 848.097s357.473-177.192 798.39-177.192 798.39 87.823 798.39 177.192z" fill="#F4F4F4" p-id="4476"></path><path d="M1292.362 934.89H284.845s-69.022-12.878-69.022-74.174V358.503h318.841s20.861 156.072 62.841 156.072h398.68s61.296-24.209 61.296-156.072h321.931v502.213s6.44 74.173-87.05 74.173z" fill="#F9F9F9" p-id="4477"></path><path d="M1292.362 947.767H284.845a92.716 92.716 0 0 1-80.612-87.05V358.502a12.877 12.877 0 0 1 12.878-12.877h318.84A12.877 12.877 0 0 1 548.83 356.7c10.044 75.719 33.996 144.998 49.964 144.998h394.302c9.014-5.408 51.509-35.799 51.509-143.195a12.877 12.877 0 0 1 12.877-12.877h321.931a12.877 12.877 0 0 1 12.878 12.877v502.213a83.445 83.445 0 0 1-20.861 58.206 103.018 103.018 0 0 1-79.067 28.845zM229.988 371.38v489.336c0 49.964 54.857 61.039 57.175 61.554H1291.59a78.809 78.809 0 0 0 60.008-20.089 58.463 58.463 0 0 0 14.165-40.177V372.668H1070.1c-3.864 128.773-66.447 154.527-69.28 154.527a12.62 12.62 0 0 1-4.636 0H598.793c-45.328 0-66.704-108.169-73.916-156.072z" fill="#DDDDDD" p-id="4478"></path><path d="M1070.1 13.135H526.424L217.368 358.76H536.21s20.861 156.072 62.841 156.072h397.135s61.296-24.21 61.296-156.072h321.931z" fill="#FFFFFF" p-id="4479"></path><path d="M996.185 527.453H598.793c-45.328 0-66.704-108.17-73.916-156.073H217.111a12.877 12.877 0 0 1-9.53-21.376L516.636 4.378A12.877 12.877 0 0 1 526.165 0h543.678a12.877 12.877 0 0 1 9.53 4.378l309.054 345.626a12.877 12.877 0 0 1-9.53 21.376h-309.054c-3.863 128.773-66.447 154.527-69.28 154.527a12.62 12.62 0 0 1-4.378 1.546z m-750.23-181.827h289.997a12.877 12.877 0 0 1 12.877 11.074c10.044 75.719 33.996 144.998 49.964 144.998h394.302c9.014-5.408 51.509-35.799 51.509-143.195a12.877 12.877 0 0 1 12.877-12.877h293.086L1064.435 27.042H532.089z" fill="#DDDDDD" p-id="4480"></path></svg>